<svg preserveAspectRatio="none" width="100%" height="100%" overflow="visible" style="display: block;" viewBox="0 0 28 28" fill="none" xmlns="http://www.w3.org/2000/svg">
<g id="effect">
<path id="Union (Stroke)" fill-rule="evenodd" clip-rule="evenodd" d="M18.6468 5.54326C18.4543 5.73351 18.0656 5.90244 17.4735 6.03265C16.9014 6.1585 16.248 6.22715 15.6144 6.29306L15.5835 6.29628C15.0654 6.35016 14.5396 6.40484 14.143 6.49658C13.9443 6.54256 13.7238 6.60917 13.5408 6.72145C13.3525 6.83697 13.1047 7.06905 13.1047 7.44767C13.1047 7.8248 13.3506 8.05678 13.5387 8.17274C13.7211 8.28522 13.9408 8.35198 14.1386 8.39806C14.5331 8.48998 15.0563 8.54503 15.572 8.5993L15.6031 8.60256C16.2371 8.6693 16.8916 8.73889 17.4655 8.8664C18.0604 8.99859 18.4526 9.1703 18.6474 9.36511L18.6485 9.3662C18.8399 9.55659 19.0099 9.94422 19.1407 10.5374C19.2667 11.1089 19.335 11.7617 19.4005 12.3948L19.4037 12.4258C19.457 12.9414 19.5112 13.4649 19.6025 13.8599C19.6482 14.0578 19.7146 14.2777 19.8269 14.4604C19.9427 14.6488 20.1747 14.8953 20.5523 14.8953C20.9288 14.8953 21.1607 14.6502 21.2767 14.4621C21.3891 14.28 21.4556 14.0608 21.5015 13.8636C21.5929 13.4704 21.6474 12.9492 21.7011 12.4356L21.7044 12.4045C21.7707 11.7705 21.8399 11.116 21.9676 10.543C22.1 9.94856 22.2722 9.55964 22.4665 9.36834L22.4698 9.36512L22.473 9.36185C22.6643 9.16752 23.0532 8.99534 23.6477 8.86291C24.2207 8.73526 24.8751 8.66608 25.5092 8.59974L25.5403 8.59649C26.0538 8.54279 26.5751 8.48827 26.9683 8.39682C27.1654 8.35097 27.3846 8.28443 27.5668 8.17204C27.7548 8.056 28 7.82415 28 7.44767C28 7.06953 27.7528 6.83743 27.5645 6.7217C27.3816 6.60931 27.1614 6.54266 26.9629 6.49666C26.5669 6.40489 26.042 6.3502 25.525 6.29634L25.4941 6.29311C24.8616 6.22719 24.2097 6.15856 23.6392 6.03275C23.0469 5.90217 22.6599 5.73282 22.4698 5.54272L22.4687 5.54164C22.2729 5.34693 22.0995 4.95205 21.9654 4.35239C21.8361 3.77434 21.7649 3.11499 21.6968 2.47845L21.6936 2.44791C21.6388 1.93616 21.5835 1.41837 21.493 1.02823C21.4477 0.832836 21.3823 0.615864 21.2728 0.435511C21.1612 0.251875 20.9319 0 20.5523 0C20.174 0 19.9419 0.247353 19.8262 0.435732C19.7138 0.618687 19.6472 0.839076 19.6012 1.0377C19.5094 1.43402 19.4548 1.95947 19.4009 2.47727L19.3977 2.5082C19.3318 3.14124 19.2631 3.79419 19.1372 4.36652C19.0071 4.95841 18.838 5.34878 18.6468 5.54326ZM7.49557 15.6091C7.1877 15.9141 6.60518 16.1547 5.79101 16.3338C4.99694 16.5084 4.09364 16.6031 3.23228 16.6927L3.19985 16.6961C2.48555 16.7704 1.77947 16.8438 1.25167 16.9659C0.987265 17.0271 0.713472 17.1118 0.49355 17.2467C0.268342 17.3849 0 17.6441 0 18.0562C0 18.4667 0.266308 18.7258 0.491039 18.8644C0.710129 18.9995 0.982803 19.0843 1.24588 19.1456C1.77092 19.2679 2.47347 19.3418 3.18455 19.4167L3.21702 19.4201C4.07893 19.5108 4.98398 19.6068 5.78046 19.7838C6.59799 19.9654 7.18493 20.2097 7.49613 20.5209L7.49722 20.522C7.80433 20.8275 8.04636 21.4088 8.22603 22.2237C8.40093 23.0171 8.49504 23.9198 8.5841 24.7805L8.58746 24.813C8.66101 25.5239 8.73373 26.2268 8.8552 26.7523C8.91606 27.0156 9.00049 27.2886 9.13533 27.508C9.27368 27.7331 9.53281 28 9.9438 28C10.3535 28 10.6125 27.7346 10.751 27.51C10.886 27.2913 10.9705 27.0193 11.0315 26.7572C11.1531 26.2341 11.2264 25.5342 11.3004 24.826L11.3038 24.7935C11.394 23.9315 11.4894 23.0265 11.6666 22.231C11.8486 21.4141 12.0937 20.8308 12.4052 20.5241L12.4085 20.5209L12.4117 20.5176C12.7184 20.2061 13.3017 19.961 14.1186 19.779C14.9141 19.6018 15.8191 19.5064 16.6811 19.4162L16.7136 19.4128C17.4218 19.3388 18.1217 19.2656 18.6448 19.1439C18.9069 19.0829 19.1789 18.9984 19.3976 18.8634C19.6222 18.7249 19.8876 18.4659 19.8876 18.0562C19.8876 17.6446 19.62 17.3853 19.3948 17.247C19.1751 17.1119 18.9016 17.0272 18.6376 16.966C18.1106 16.8439 17.4058 16.7704 16.693 16.6962L16.6605 16.6928C15.8007 16.6032 14.8994 16.5085 14.1074 16.3339C13.2938 16.1545 12.7135 15.9136 12.4085 15.6085L12.4074 15.6074C12.0946 15.2963 11.8479 14.7054 11.6637 13.8817C11.4843 13.0795 11.3861 12.1679 11.2936 11.3025L11.2901 11.2706C11.2147 10.565 11.1403 9.86959 11.0199 9.35033C10.9596 9.09033 10.8765 8.82094 10.7449 8.60431C10.6113 8.3844 10.3557 8.1124 9.9438 8.1124C9.53208 8.1124 9.27275 8.38023 9.1344 8.60548C8.99939 8.8253 8.91466 9.09896 8.85348 9.36318C8.73136 9.89058 8.65792 10.5962 8.58361 11.3101L8.58023 11.3425C8.49063 12.2031 8.39596 13.1059 8.2213 13.9002C8.04227 14.7143 7.80159 15.2986 7.49557 15.6091Z" fill="black" fill-opacity="0.12"/>
<g id="Union">
<path d="M21.1168 2.54048C21.0022 1.46874 20.9075 0.583333 20.5523 0.583333C20.1845 0.583333 20.0908 1.48412 19.9779 2.56861C19.8475 3.82026 19.6918 5.31661 19.0599 5.9552C18.4245 6.58721 16.9275 6.74294 15.6748 6.87327C14.5898 6.98614 13.688 7.07996 13.688 7.44768C13.688 7.81443 14.5837 7.90871 15.6641 8.02244C16.9176 8.15438 18.4197 8.31248 19.0599 8.95263C19.6963 9.58569 19.8512 11.0832 19.9807 12.3348C20.0925 13.415 20.1853 14.312 20.5523 14.312C20.9183 14.312 21.0116 13.42 21.1242 12.3438C21.2554 11.0904 21.4126 9.58721 22.0573 8.95263C22.6919 8.30798 24.1951 8.15071 25.4485 8.01958C26.5247 7.90699 27.4167 7.81366 27.4167 7.44768C27.4167 7.08 26.5164 6.98617 25.4336 6.8733C24.1832 6.74297 22.6893 6.58727 22.0573 5.9552C21.4135 5.31482 21.2514 3.79915 21.1168 2.54048Z" fill="white"/>
<path d="M10.7135 11.3646C10.5572 9.90311 10.4281 8.69574 9.9438 8.69574C9.44228 8.69574 9.31439 9.92409 9.16043 11.4029C8.98273 13.1097 8.7703 15.1502 7.90861 16.021C7.04221 16.8828 5.00089 17.0952 3.29264 17.2729C1.81305 17.4268 0.583333 17.5548 0.583333 18.0562C0.583333 18.5563 1.8048 18.6849 3.27809 18.84C4.9874 19.0199 7.03568 19.2355 7.90861 20.1084C8.77643 20.9717 8.98773 23.0137 9.16434 24.7205C9.31676 26.1935 9.44333 27.4167 9.9438 27.4167C10.4429 27.4167 10.5701 26.2003 10.7237 24.7328C10.9025 23.0236 11.1169 20.9738 11.996 20.1084C12.8613 19.2293 14.9112 19.0149 16.6204 18.8361C18.0879 18.6825 19.3043 18.5553 19.3043 18.0562C19.3043 17.5548 18.0766 17.4269 16.6001 17.273C14.895 17.0952 12.8579 16.8829 11.996 16.021C11.1182 15.1478 10.8971 13.0809 10.7135 11.3646Z" fill="white"/>
</g>
</g>
</svg>
