<svg preserveAspectRatio="none" width="100%" height="100%" overflow="visible" style="display: block;" viewBox="0 0 27.4167 25.6667" fill="none" xmlns="http://www.w3.org/2000/svg">
<g id="filter">
<path id="Union" fill-rule="evenodd" clip-rule="evenodd" d="M8.16667 25.6667C10.375 25.6667 12.3791 24.7895 13.8485 23.3661C15.2823 24.7835 17.2426 25.6667 19.4152 25.6667C23.8777 25.6667 27.4167 21.9663 27.4167 17.5C27.4167 13.7407 24.912 10.5273 21.4575 9.60113C21.5402 9.13484 21.5833 8.6554 21.5833 8.16667C21.5833 3.65634 17.927 0 13.4167 0C8.90634 0 5.25 3.65634 5.25 8.16667C5.25 8.72861 5.30684 9.27779 5.41523 9.8086C2.25898 10.9379 0 13.9545 0 17.5C0 22.0103 3.65634 25.6667 8.16667 25.6667ZM8.75 8.16667C8.75 5.58934 10.8393 3.5 13.4167 3.5C15.994 3.5 18.0833 5.58934 18.0833 8.16667C18.0833 8.62434 18.0179 9.06482 17.8964 9.4803C15.8161 9.88829 14.0335 11.1159 12.8698 12.8017C10.5504 12.5311 8.75 10.559 8.75 8.16667ZM12.6781 16.3004C10.2899 16.0862 8.19859 14.844 6.84927 13.0217C4.91336 13.5902 3.5 15.3806 3.5 17.5C3.5 20.0773 5.58934 22.1667 8.16667 22.1667C10.744 22.1667 12.8333 20.0773 12.8333 17.5C12.8333 17.0839 12.7793 16.6821 12.6781 16.3004ZM19.4152 22.1667C17.9668 22.1667 16.6623 21.4558 15.8315 20.3246C16.1562 19.4437 16.3333 18.4919 16.3333 17.5C16.3333 16.5093 16.1562 15.5572 15.8313 14.6757C16.662 13.5443 17.9666 12.8333 19.4152 12.8333C21.8595 12.8333 23.9167 14.8804 23.9167 17.5C23.9167 20.1196 21.8595 22.1667 19.4152 22.1667Z" fill="black" fill-opacity="0.12"/>
<path id="Union_2" fill-rule="evenodd" clip-rule="evenodd" d="M0.583333 17.5C0.583333 14.0251 2.92059 11.0961 6.1088 10.1992C5.92928 9.55235 5.83333 8.87071 5.83333 8.16667C5.83333 3.97851 9.22851 0.583333 13.4167 0.583333C17.6048 0.583333 21 3.97851 21 8.16667C21 8.81318 20.9189 9.44152 20.7661 10.0417C24.2367 10.6926 26.8333 13.8064 26.8333 17.5C26.8333 21.6593 23.5406 25.0833 19.4152 25.0833C17.1924 25.0833 15.2074 24.0851 13.8529 22.5174C12.4634 24.091 10.4309 25.0833 8.16667 25.0833C3.97851 25.0833 0.583333 21.6882 0.583333 17.5ZM8.16667 8.16667C8.16667 5.26717 10.5172 2.91667 13.4167 2.91667C16.3162 2.91667 18.6667 5.26717 18.6667 8.16667C18.6667 8.81113 18.551 9.42697 18.3396 9.99575C16.1609 10.3191 14.2972 11.6096 13.1669 13.4108C10.3834 13.2805 8.16667 10.9824 8.16667 8.16667ZM13.4167 17.5C13.4167 16.8831 13.3107 16.2924 13.1162 15.7442C10.6028 15.6462 8.40333 14.325 7.09665 12.3591C4.71028 12.8533 2.91667 14.9672 2.91667 17.5C2.91667 20.3995 5.26717 22.75 8.16667 22.75C11.0662 22.75 13.4167 20.3995 13.4167 17.5ZM19.4152 22.75C17.6561 22.75 16.0928 21.8262 15.1757 20.4C15.5458 19.5066 15.75 18.5272 15.75 17.5C15.75 16.4744 15.5458 15.4945 15.1755 14.6003C16.0926 13.1739 17.656 12.25 19.4152 12.25C22.195 12.25 24.5 14.5716 24.5 17.5C24.5 20.4284 22.195 22.75 19.4152 22.75Z" fill="white"/>
</g>
</svg>
