<svg preserveAspectRatio="none" width="100%" height="100%" overflow="visible" style="display: block;" viewBox="0 0 27.3062 27.6709" fill="none" xmlns="http://www.w3.org/2000/svg">
<g id="gear">
<path id="Subtract" fill-rule="evenodd" clip-rule="evenodd" d="M12.0295 0.601106C12.4962 0.518818 12.9663 0.726988 13.219 1.12785L13.7202 1.92281C13.9318 2.25851 14.3 2.45926 14.696 2.48476C15.5381 2.53899 16.3552 2.68485 17.1375 2.91247C17.5184 3.02329 17.9327 2.96056 18.2463 2.71759L18.9866 2.14397C19.3612 1.85372 19.8741 1.81888 20.2845 2.05582L20.9865 2.46115C21.3969 2.69809 21.6232 3.15973 21.5592 3.62925L21.4322 4.55979C21.3786 4.95274 21.5313 5.3429 21.8178 5.61712C22.4157 6.1894 22.9513 6.82627 23.4134 7.51654C23.6338 7.84588 23.9913 8.06376 24.3873 8.07918L25.3237 8.11563C25.7972 8.13407 26.2125 8.43709 26.3746 8.88239L26.6519 9.64416C26.814 10.0895 26.6906 10.5886 26.3397 10.9071L25.6462 11.5365C25.3528 11.8029 25.219 12.1995 25.2618 12.5935C25.3061 13.0016 25.3288 13.4161 25.3288 13.8359C25.3288 14.2558 25.3061 14.6703 25.2617 15.0784C25.2189 15.4724 25.3528 15.8691 25.6462 16.1354L26.3402 16.7654C26.6911 17.0839 26.8145 17.583 26.6524 18.0283L26.3752 18.79C26.2131 19.2353 25.7978 19.5384 25.3242 19.5568L24.3869 19.5933C23.9909 19.6087 23.6335 19.8266 23.413 20.1559C22.9511 20.8459 22.4157 21.4825 21.818 22.0546C21.5315 22.3288 21.3788 22.719 21.4324 23.1119L21.5592 24.0413C21.6233 24.5108 21.397 24.9724 20.9866 25.2094L20.2845 25.6147C19.8741 25.8516 19.3612 25.8168 18.9866 25.5266L18.2476 24.9539C17.934 24.7109 17.5196 24.6482 17.1387 24.7591C16.3557 24.987 15.5379 25.133 14.6951 25.1872C14.2991 25.2126 13.9309 25.4134 13.7193 25.7491L13.2187 26.5431C12.966 26.9439 12.4959 27.1521 12.0292 27.0698L11.2309 26.929C10.7642 26.8467 10.3937 26.4903 10.2933 26.0272L10.0949 25.1119C10.0109 24.7243 9.73387 24.41 9.37095 24.25C8.6088 23.9141 7.89049 23.497 7.22699 23.0097C6.90706 22.7747 6.49595 22.6918 6.11793 22.8129L5.22135 23.1003C4.77009 23.2449 4.27617 23.1022 3.97157 22.7392L3.45049 22.1182C3.14588 21.7552 3.09112 21.244 3.31191 20.8247L3.74991 19.9929C3.93489 19.6416 3.92455 19.2223 3.74874 18.8663C3.3861 18.132 3.10037 17.353 2.90209 16.5396C2.80801 16.1537 2.54633 15.8256 2.17863 15.6753L1.30863 15.3197C0.869971 15.1404 0.583333 14.7136 0.583333 14.2398V13.4291C0.583333 12.9552 0.86997 12.5284 1.30863 12.3492L2.17944 11.9933C2.54702 11.843 2.80866 11.515 2.90282 11.1293C3.10117 10.3166 3.38683 9.53816 3.7493 8.80444C3.92516 8.44844 3.93553 8.02905 3.75052 7.67771L3.31143 6.84386C3.09064 6.42456 3.1454 5.91337 3.45 5.55035L3.97108 4.92935C4.27569 4.56634 4.76961 4.42364 5.22087 4.56827L6.12093 4.85674C6.49882 4.97785 6.90981 4.89502 7.2297 4.6602C7.89246 4.17369 8.60988 3.75726 9.37102 3.42183C9.73394 3.26189 10.0109 2.94753 10.095 2.55993L10.2936 1.64368C10.3939 1.18056 10.7645 0.824163 11.2312 0.741875L12.0295 0.601106ZM13.9538 23.2276C19.1407 23.2276 23.3455 19.0228 23.3455 13.8359C23.3455 8.64906 19.1407 4.44427 13.9538 4.44427C8.76693 4.44427 4.56213 8.64906 4.56213 13.8359C4.56213 19.0228 8.76693 23.2276 13.9538 23.2276Z" fill="white"/>
<path id="Subtract (Stroke)" fill-rule="evenodd" clip-rule="evenodd" d="M3.74991 19.9929L3.23376 19.7212C3.32351 19.5507 3.3268 19.3293 3.22572 19.1247C2.84439 18.3525 2.54389 17.5332 2.33535 16.6778C2.28123 16.4558 2.13632 16.2882 1.95794 16.2153L1.08794 15.8597C0.429956 15.5908 0 14.9506 0 14.2398V13.4291C0 12.7183 0.429956 12.0781 1.08794 11.8092L1.95875 11.4533C2.13707 11.3804 2.28195 11.2129 2.33612 10.991C2.54473 10.1363 2.84516 9.31762 3.2263 8.5461C3.32742 8.3414 3.32414 8.12 3.23438 7.94953L2.79528 7.11567C2.46409 6.48673 2.54624 5.71994 3.00314 5.17542L3.52423 4.55442C3.98113 4.0099 4.72201 3.79585 5.39891 4.01279L6.29897 4.30126C6.48235 4.36003 6.70075 4.32487 6.88451 4.18998C7.58114 3.67862 8.33537 3.24079 9.13578 2.88806C9.34455 2.79605 9.4841 2.62443 9.52486 2.43639L9.72346 1.52014C9.87403 0.825455 10.4298 0.29086 11.1299 0.167428L11.9282 0.0266591C12.6282 -0.0967728 13.3334 0.215482 13.7124 0.816774L14.2136 1.61173L13.7202 1.92283L13.219 1.12787C12.9663 0.727012 12.4962 0.518842 12.0295 0.60113L11.2312 0.7419C10.7645 0.824187 10.3939 1.18058 10.2936 1.64371L10.095 2.55995C10.0109 2.94756 9.73394 3.26192 9.37102 3.42186C8.60988 3.75729 7.89246 4.17372 7.2297 4.66022C6.90981 4.89504 6.49882 4.97787 6.12093 4.85676L5.22087 4.5683C4.76961 4.42367 4.27569 4.56637 3.97108 4.92938L3.45 5.55038C3.1454 5.91339 3.09064 6.42458 3.31143 6.84388L3.75052 7.67774C3.93553 8.02907 3.92516 8.44846 3.7493 8.80446C3.38683 9.53818 3.10117 10.3166 2.90282 11.1293C2.80866 11.5151 2.54702 11.8431 2.17944 11.9933L1.30863 12.3492C0.86997 12.5285 0.583333 12.9553 0.583333 13.4291V14.2398C0.583333 14.7137 0.869971 15.1405 1.30863 15.3197L2.17863 15.6753C2.54633 15.8256 2.80801 16.1537 2.90209 16.5397C3.10037 17.353 3.3861 18.1321 3.74874 18.8663C3.92455 19.2223 3.93489 19.6417 3.74991 19.9929ZM6.11793 22.813L5.22135 23.1003C4.77009 23.2449 4.27617 23.1022 3.97157 22.7392L3.45049 22.1182C3.14588 21.7552 3.09112 21.244 3.31191 20.8247L3.74991 19.9929L3.23376 19.7212L2.79577 20.5529C2.46458 21.1819 2.54672 21.9487 3.00363 22.4932L3.52471 23.1142C3.98161 23.6587 4.72249 23.8727 5.39939 23.6558L6.29597 23.3685C6.47941 23.3097 6.69789 23.3449 6.88167 23.4799C7.57907 23.9921 8.33424 24.4306 9.13571 24.7838C9.34448 24.8758 9.48403 25.0475 9.52479 25.2355L9.72318 26.1508C9.87375 26.8455 10.4296 27.3801 11.1296 27.5035L11.9279 27.6443C12.6279 27.7677 13.3331 27.4555 13.7122 26.8542L14.2127 26.0602C14.3154 25.8973 14.5053 25.7839 14.7326 25.7693C15.6183 25.7123 16.4782 25.5589 17.3017 25.3192C17.5208 25.2554 17.7381 25.2971 17.8903 25.415L18.6293 25.9877C19.1912 26.4231 19.9606 26.4753 20.5762 26.1199L21.2782 25.7146C21.8938 25.3592 22.2333 24.6667 22.1372 23.9624L22.0103 23.0331C21.9843 22.8424 22.0568 22.6335 22.2213 22.476C22.8495 21.8748 23.4122 21.2057 23.8977 20.4804C24.0244 20.2912 24.2175 20.1837 24.4096 20.1762L25.3469 20.1397C26.0572 20.1121 26.6802 19.6575 26.9233 18.9896L27.2006 18.2278C27.4437 17.5599 27.2586 16.8112 26.7323 16.3335L26.0383 15.7035C25.8959 15.5743 25.8171 15.3678 25.8417 15.1414C25.8883 14.7125 25.9122 14.2769 25.9122 13.836C25.9122 13.395 25.8883 12.9595 25.8417 12.5306C25.8171 12.3041 25.8959 12.0977 26.0383 11.9685L26.7317 11.339C27.2581 10.8613 27.4431 10.1126 27.2 9.44467L26.9228 8.6829C26.6797 8.01495 26.0567 7.56042 25.3464 7.53276L24.41 7.49631C24.2179 7.48883 24.0248 7.38134 23.8981 7.19208C23.4124 6.4665 22.8495 5.79714 22.2211 5.19573C22.0566 5.03824 21.9841 4.82939 22.0102 4.63868L22.1371 3.70815C22.2332 3.00386 21.8938 2.3114 21.2782 1.956L20.5762 1.55067C19.9606 1.19526 19.1912 1.24751 18.6293 1.68289L17.889 2.25651C17.7369 2.37439 17.5196 2.41615 17.3005 2.35239C16.4776 2.11298 15.6184 1.95965 14.7335 1.90266C14.5062 1.88802 14.3163 1.77466 14.2136 1.61173L13.7202 1.92283C13.9318 2.25854 14.3 2.45928 14.696 2.48479C15.5381 2.53902 16.3552 2.68488 17.1375 2.9125C17.5184 3.02332 17.9327 2.96058 18.2463 2.71762L18.9866 2.14399C19.3612 1.85374 19.8741 1.81891 20.2845 2.05585L20.9865 2.46118C21.3969 2.69812 21.6232 3.15975 21.5592 3.62928L21.4322 4.55981C21.3786 4.95277 21.5313 5.34293 21.8178 5.61715C22.4157 6.18942 22.9513 6.82629 23.4134 7.51656C23.6338 7.8459 23.9913 8.06378 24.3873 8.0792L25.3237 8.11566C25.7972 8.13409 26.2125 8.43712 26.3746 8.88242L26.6519 9.64418C26.814 10.0895 26.6906 10.5886 26.3397 10.9071L25.6462 11.5365C25.3528 11.8029 25.219 12.1996 25.2618 12.5936C25.3061 13.0016 25.3288 13.4161 25.3288 13.836C25.3288 14.2558 25.3061 14.6704 25.2617 15.0784C25.2189 15.4724 25.3528 15.8691 25.6462 16.1355L26.3402 16.7654C26.6911 17.0839 26.8145 17.583 26.6524 18.0283L26.3752 18.7901C26.2131 19.2354 25.7978 19.5384 25.3242 19.5568L24.3869 19.5933C23.9909 19.6087 23.6335 19.8266 23.413 20.1559C22.9511 20.8459 22.4157 21.4825 21.818 22.0546C21.5315 22.3288 21.3788 22.719 21.4324 23.1119L21.5592 24.0413C21.6233 24.5108 21.397 24.9725 20.9866 25.2094L20.2845 25.6147C19.8741 25.8517 19.3612 25.8168 18.9866 25.5266L18.2476 24.9539C17.934 24.7109 17.5196 24.6482 17.1387 24.7591C16.3557 24.987 15.5379 25.133 14.6951 25.1872C14.2991 25.2127 13.9309 25.4134 13.7193 25.7491L13.2187 26.5431C12.966 26.9439 12.4959 27.1521 12.0292 27.0698L11.2309 26.929C10.7642 26.8468 10.3937 26.4904 10.2933 26.0272L10.0949 25.1119C10.0109 24.7243 9.73387 24.41 9.37095 24.25C8.6088 23.9142 7.89049 23.4971 7.22699 23.0097C6.90706 22.7747 6.49595 22.6918 6.11793 22.813ZM13.9538 22.6443C18.8185 22.6443 22.7621 18.7007 22.7621 13.836C22.7621 8.97125 18.8185 5.02763 13.9538 5.02763C9.08909 5.02763 5.14547 8.97125 5.14547 13.836C5.14547 18.7007 9.08909 22.6443 13.9538 22.6443ZM23.3455 13.836C23.3455 19.0228 19.1407 23.2276 13.9538 23.2276C8.76693 23.2276 4.56213 19.0228 4.56213 13.836C4.56213 8.64908 8.76693 4.44429 13.9538 4.44429C19.1407 4.44429 23.3455 8.64908 23.3455 13.836Z" fill="black" fill-opacity="0.12"/>
</g>
</svg>
