<svg preserveAspectRatio="none" width="100%" height="100%" overflow="visible" style="display: block;" viewBox="0 0 23.2972 28" fill="none" xmlns="http://www.w3.org/2000/svg">
<g id="mic_star">
<g id="Union">
<path fill-rule="evenodd" clip-rule="evenodd" d="M14.3423 0.563522L13.7893 0.366152C12.7696 0.00224993 11.9504 0 11.6483 0C11.2698 0 10.1001 0.00394827 8.73524 0.699375C7.52786 1.31456 6.54624 2.29619 5.93105 3.50356C5.53011 4.29044 5.3735 5.12259 5.30107 6.0091C5.23165 6.85875 5.23166 7.89821 5.23168 9.14344L5.23168 10.1066C5.23166 11.3518 5.23165 12.3913 5.30107 13.2409C5.3735 14.1274 5.53012 14.9596 5.93105 15.7464C6.54624 16.9538 7.52787 17.9354 8.73524 18.5506C10.1001 19.2461 11.2698 19.25 11.6483 19.25C12.0269 19.25 13.1966 19.2461 14.5615 18.5506C15.7688 17.9354 16.7504 16.9538 17.3656 15.7464C17.6868 15.116 17.851 14.4573 17.941 13.7646L18.0835 12.6677C17.4874 12.9712 16.8825 13.3861 16.1907 13.3861C15.5883 13.3861 15.0905 13.0696 14.5734 12.8018L14.4294 13.5743C14.3781 13.8496 14.3147 14.0248 14.2471 14.1575C13.9675 14.7063 13.5213 15.1525 12.9725 15.4321C12.1415 15.8555 11.1551 15.8555 10.3242 15.4321C9.7754 15.1525 9.32921 14.7063 9.04958 14.1575C8.94196 13.9463 8.8442 13.626 8.78945 12.9559C8.73304 12.2655 8.73168 11.3692 8.73168 10.0333L8.73168 9.21667C8.73168 7.88081 8.73304 6.98445 8.78945 6.29411C8.8442 5.62397 8.94196 5.30373 9.04957 5.09253C9.32921 4.54372 9.7754 4.09753 10.3242 3.8179C10.9483 3.49991 11.4542 3.49998 11.6412 3.5H11.6544C11.819 3.49998 12.2207 3.49995 12.7329 3.70825L13.2473 3.91749C13.5143 3.34365 13.701 2.80137 13.8474 2.17868C13.976 1.62912 14.1492 1.09355 14.3423 0.563522Z" fill="black" fill-opacity="0.12"/>
<path fill-rule="evenodd" clip-rule="evenodd" d="M3.36252 9.95639C3.24879 9.74044 3.07199 9.567 2.85389 9.45745C2.58999 9.3249 2.2889 9.3333 2.00132 9.33333H1.49723C1.20363 9.3333 0.896052 9.32496 0.62788 9.46354C0.406968 9.57769 0.226917 9.7612 0.116991 9.98425C-0.0158429 10.2538 -0.00232286 10.5591 0.00328108 10.8514L0.00364146 10.8702C0.0224018 11.855 0.057256 12.7398 0.122563 13.5391C0.266516 15.301 0.566174 16.7815 1.25323 18.1299C2.37176 20.3251 4.15653 22.1099 6.35175 23.2284C7.69765 23.9142 8.9345 24.2304 9.89834 24.376V26.8333C9.89834 27.4777 10.4207 28 11.065 28H12.2317C12.876 28 13.3983 27.4777 13.3983 26.8333V24.376C14.3622 24.2304 15.599 23.9142 16.9449 23.2284C19.1401 22.1099 20.9249 20.3251 22.0434 18.1299C23.1979 15.864 23.2482 13.2246 23.2922 10.9087C23.2982 10.5986 23.3209 10.2708 23.1796 9.98423C23.0017 9.62316 22.7022 9.45228 22.4184 9.38292C22.177 9.3239 21.9125 9.33333 21.7805 9.33333H21.3137C21.1851 9.33333 20.9263 9.32399 20.6898 9.38013C20.4125 9.44595 20.1173 9.60854 19.9341 9.95639C19.793 10.2244 19.7988 10.5351 19.7932 10.8298C19.7754 11.7531 19.7432 12.5496 19.6857 13.2541C19.5594 14.7996 19.3186 15.7681 18.9249 16.5409C18.1419 18.0776 16.8926 19.3269 15.3559 20.1099C13.6089 21 12.1583 21 11.655 21H11.6416C11.1383 21 9.68774 21 7.94072 20.1099C6.40406 19.3269 5.15472 18.0776 4.37176 16.5409C3.978 15.7681 3.73721 14.7996 3.61094 13.2541C3.55338 12.5496 3.52124 11.7531 3.50347 10.8298L3.50312 10.8114C3.49759 10.5224 3.50082 10.219 3.36252 9.95639Z" fill="black" fill-opacity="0.12"/>
<path fill-rule="evenodd" clip-rule="evenodd" d="M16.1731 1.00673C14.671 1.00673 15.1281 3.64668 14.2804 4.50025C13.4268 5.34781 10.787 4.89082 10.787 6.39284C10.787 7.89497 13.4286 7.4379 14.2805 8.28981C15.0108 9.0201 14.8143 11.7789 16.1731 11.7789C17.5314 11.7789 17.3396 9.02028 18.07 8.28981C18.8005 7.55934 21.5592 7.75113 21.5592 6.39284C21.5592 5.034 18.8016 5.22753 18.0696 4.49979C17.2185 3.64765 17.6748 1.00673 16.1731 1.00673Z" fill="black" fill-opacity="0.12"/>
</g>
<g id="Union_2">
<path d="M11.6484 0.583333C11.9264 0.583333 12.667 0.58501 13.5932 0.915546C13.4544 1.29636 13.3577 1.71067 13.2952 1.97846L13.2795 2.04517C13.182 2.45993 13.1096 2.75607 13.0184 3.00662C12.9925 3.07776 12.9701 3.1304 12.9527 3.1679C12.3348 2.91662 11.843 2.91665 11.6526 2.91667H11.6441C11.4253 2.91665 10.8082 2.9166 10.0594 3.29814C9.40082 3.6337 8.86539 4.16913 8.52983 4.8277C8.37328 5.13495 8.26574 5.54058 8.20806 6.24661C8.14926 6.96626 8.14835 7.89063 8.14835 9.21667L8.14835 10.0333C8.14835 11.3594 8.14926 12.2837 8.20806 13.0034C8.26574 13.7094 8.37328 14.1151 8.52983 14.4223C8.86539 15.0809 9.40082 15.6163 10.0594 15.9519C10.8082 16.3334 11.4253 16.3334 11.6441 16.3333H11.6526C11.8714 16.3334 12.4885 16.3334 13.2373 15.9519C13.8959 15.6163 14.4313 15.0809 14.7669 14.4223C14.8648 14.2302 14.9435 13.9996 15.0028 13.6812C15.3356 13.8536 15.7338 13.9694 16.1907 13.9694C16.6404 13.9694 17.0331 13.8572 17.3625 13.6894C17.2782 14.3389 17.1279 14.9282 16.8459 15.4816C16.2866 16.5792 15.3942 17.4716 14.2966 18.0309C13.0539 18.6641 11.994 18.6667 11.6484 18.6667C11.3027 18.6667 10.2428 18.6641 9.00007 18.0309C7.90246 17.4716 7.01008 16.5792 6.45081 15.4816C6.09873 14.7906 5.95195 14.0437 5.88247 13.1934C5.815 12.3675 5.81501 11.3477 5.81502 10.0833L5.81502 9.16673C5.81501 7.90231 5.815 6.88246 5.88247 6.05661C5.95195 5.20628 6.09873 4.4594 6.45081 3.76839C7.01008 2.67078 7.90246 1.77839 9.00007 1.21913C10.2428 0.585924 11.3027 0.583333 11.6484 0.583333Z" fill="white"/>
<path d="M0.586877 10.8591C0.605522 11.8379 0.640045 12.7092 0.703967 13.4916C0.844968 15.2174 1.1348 16.6125 1.773 17.8651C2.83559 19.9505 4.53113 21.6461 6.61659 22.7087C8.14326 23.4865 9.51972 23.7635 10.4817 23.8621V26.8333C10.4817 27.1555 10.7429 27.4167 11.065 27.4167H12.2317C12.5539 27.4167 12.815 27.1555 12.815 26.8333V23.8621C13.777 23.7635 15.1534 23.4865 16.68 22.7087C18.7655 21.6461 20.461 19.9505 21.5236 17.8651C22.6132 15.7267 22.6649 13.2113 22.7098 10.859C22.716 10.5326 22.7191 10.3693 22.6564 10.2421C22.4949 9.91438 22.1539 9.9155 21.8343 9.91655L21.7806 9.91667H21.3137L21.2582 9.91653C20.9456 9.91541 20.6156 9.91423 20.4502 10.2282C20.3858 10.3505 20.3827 10.514 20.3764 10.841C20.3585 11.7703 20.326 12.5801 20.2671 13.3016C20.1379 14.8831 19.8873 15.937 19.4446 16.8058C18.6057 18.4522 17.2672 19.7907 15.6207 20.6296C13.749 21.5834 12.1869 21.5833 11.6526 21.5833H11.644C11.1098 21.5833 9.54768 21.5834 7.6759 20.6296C6.02948 19.7907 4.6909 18.4522 3.85201 16.8058C3.40935 15.937 3.15876 14.8831 3.02955 13.3016C2.97061 12.5801 2.93814 11.7703 2.92025 10.841C2.91396 10.514 2.91081 10.3505 2.84639 10.2282C2.78935 10.1199 2.70146 10.0337 2.59207 9.97873C2.46851 9.91667 2.30665 9.91667 1.98293 9.91667H1.51608C1.18647 9.91667 1.02167 9.91667 0.895683 9.98177C0.78556 10.0387 0.695035 10.1309 0.640238 10.2421C0.577548 10.3693 0.580657 10.5326 0.586877 10.8591Z" fill="white"/>
<path d="M16.1731 1.59007C16.4901 1.59007 16.6199 2.14047 16.7799 2.81885C16.9504 3.54191 17.1552 4.41036 17.6576 4.91271C18.1592 5.41215 19.0249 5.61599 19.7463 5.78585C20.4249 5.94565 20.9758 6.07537 20.9758 6.39284C20.9758 6.7099 20.4263 6.8397 19.7489 6.99971C19.027 7.17022 18.1598 7.37504 17.6576 7.87733C17.1553 8.37962 16.9504 9.24677 16.7799 9.96865C16.6199 10.6461 16.4901 11.1956 16.1731 11.1956C15.8562 11.1956 15.7274 10.6467 15.5685 9.96972C15.3991 9.24762 15.1955 8.37987 14.6929 7.87733C14.1906 7.37498 13.3221 7.17017 12.5991 6.99965C11.9207 6.83966 11.3703 6.70986 11.3703 6.39284C11.3703 6.07541 11.9221 5.94568 12.6017 5.78591C13.3242 5.61604 14.1912 5.41221 14.6929 4.91271C15.1924 4.41096 15.3963 3.54398 15.5661 2.82144C15.7259 2.14187 15.8556 1.59007 16.1731 1.59007Z" fill="white"/>
</g>
</g>
</svg>
