<svg preserveAspectRatio="none" width="100%" height="100%" overflow="visible" style="display: block;" viewBox="0 0 25.0835 25.0835" fill="none" xmlns="http://www.w3.org/2000/svg">
<g id="sticker_square">
<g id="sticker">
<path d="M7.58333 8.45833C7.58333 7.65292 8.23625 7 9.04167 7C9.84708 7 10.5 7.65292 10.5 8.45833V10.2083C10.5 11.0137 9.84708 11.6667 9.04167 11.6667C8.23625 11.6667 7.58333 11.0137 7.58333 10.2083V8.45833Z" fill="white"/>
<path d="M16.0417 7C15.2363 7 14.5833 7.65292 14.5833 8.45833V10.2083C14.5833 11.0137 15.2363 11.6667 16.0417 11.6667C16.8471 11.6667 17.5 11.0137 17.5 10.2083V8.45833C17.5 7.65292 16.8471 7 16.0417 7Z" fill="white"/>
<path d="M10.0994 0.583334H15.1313C16.49 0.583324 17.5774 0.583317 18.4576 0.651848C19.3607 0.722172 20.1429 0.869847 20.8675 1.21882C22.1771 1.84953 23.2338 2.90621 23.8645 4.21584C24.2135 4.94046 24.3612 5.72261 24.4315 6.62576C24.4786 7.23053 24.4933 7.93316 24.4979 8.75443L24.5 8.75L24.5001 10.7689C24.5002 10.8664 24.5002 10.9615 24.5 11.0544V12.2213C24.5001 12.6354 24.5001 12.8915 24.4854 13.1446C24.3959 14.6905 23.8977 16.1849 23.0418 17.4753C22.9017 17.6865 22.7481 17.8914 22.4995 18.2228L22.4665 18.2668L22.4661 18.2673L22.4657 18.2678C22.2164 18.6003 22.0782 18.7845 21.9352 18.9653C21.064 20.0672 20.0674 21.0639 18.9655 21.9351C18.7847 22.078 18.6005 22.2162 18.268 22.4656L18.2675 22.4659L18.267 22.4663L18.2229 22.4993C17.8916 22.7479 17.6867 22.9016 17.4755 23.0417C16.1851 23.8976 14.6906 24.3957 13.1448 24.4852C12.8917 24.4999 12.6355 24.4999 12.2213 24.4999H11.1155C11.003 24.5003 10.8871 24.5002 10.7677 24.5001L9.94399 24.5C9.77201 24.5 9.60439 24.5 9.44099 24.4999H8.75V24.4979C7.93064 24.4933 7.22945 24.4785 6.62578 24.4315C5.72266 24.3612 4.94054 24.2135 4.21593 23.8646C2.90623 23.2338 1.84949 22.1771 1.21877 20.8674C0.869826 20.1428 0.722161 19.3607 0.651843 18.4576C0.583317 17.5775 0.583324 16.4901 0.583334 15.1314V10.0994C0.583323 8.67217 0.583315 7.52991 0.658736 6.60681C0.736157 5.65921 0.898834 4.84029 1.28271 4.0869C1.8979 2.87952 2.87952 1.8979 4.0869 1.28271C4.84029 0.898834 5.65921 0.736157 6.60681 0.658736C7.52991 0.583315 8.67218 0.583323 10.0994 0.583334ZM21.177 15.6725C20.7015 15.7512 20.1615 15.7507 19.5167 15.7502L19.356 15.7501C18.0899 15.7501 17.7073 15.7621 17.426 15.8446C16.664 16.0684 16.0682 16.6642 15.8445 17.4261C15.7619 17.7074 15.75 18.09 15.75 19.3561L15.7501 19.5168C15.7507 20.2794 15.7512 20.8954 15.6208 21.4316C15.8142 21.3301 16.0028 21.2185 16.1857 21.0972C16.3339 20.9989 16.4824 20.8881 16.8519 20.6109L16.8525 20.6105C17.2035 20.3473 17.3635 20.2272 17.5183 20.1047C18.4781 19.3459 19.3461 18.4779 20.1049 17.5182C20.2274 17.3633 20.3472 17.2037 20.6105 16.8526L21.177 15.6725ZM10.794 22.1665C11.7094 22.165 11.9711 22.1511 12.1596 22.0958C12.7311 21.928 13.178 21.4811 13.3458 20.9097C13.4047 20.7088 13.4166 20.4249 13.4166 19.3561L13.4166 19.181C13.416 18.1686 13.4155 17.4163 13.6056 16.7688C14.0531 15.2449 15.2448 14.0532 16.7686 13.6058C17.4162 13.4157 18.1684 13.4161 19.1809 13.4167L19.356 13.4168C20.4249 13.4168 20.7089 13.4049 20.9097 13.3459C21.4811 13.1781 21.928 12.7313 22.0958 12.1598C22.1548 11.959 22.1667 11.675 22.1667 10.6062V10.0001C22.1667 8.58232 22.1658 7.58579 22.1052 6.8069C22.0455 6.04067 21.9332 5.58327 21.7623 5.22826C21.3609 4.39486 20.6885 3.72243 19.8551 3.32107C19.5001 3.1501 19.0427 3.0378 18.2764 2.97814C17.4975 2.91749 16.501 2.91667 15.0832 2.91667H10.15C8.66061 2.91667 7.61374 2.91757 6.79682 2.98432C5.99351 3.04995 5.51585 3.17338 5.14621 3.36172C4.37788 3.75321 3.75321 4.37788 3.36172 5.14621C3.17338 5.51585 3.04995 5.99351 2.98432 6.79681C2.91758 7.61374 2.91667 8.66061 2.91667 10.15V15.0834C2.91667 16.5011 2.91749 17.4976 2.97814 18.2764C3.03779 19.0426 3.15008 19.5 3.32104 19.855C3.7224 20.6885 4.39487 21.3609 5.22832 21.7623C5.58332 21.9333 6.04071 22.0455 6.80691 22.1052C7.49111 22.1585 8.34324 22.1656 9.50134 22.1665H10.794Z" fill="white"/>
</g>
<path id="sticker (Stroke)" fill-rule="evenodd" clip-rule="evenodd" d="M8.75 24.4979C7.93064 24.4933 7.22945 24.4785 6.62578 24.4315C5.72266 24.3612 4.94054 24.2135 4.21593 23.8646C2.90623 23.2338 1.84949 22.1771 1.21877 20.8674C0.869826 20.1428 0.722162 19.3607 0.651843 18.4576C0.583317 17.5775 0.583325 16.4901 0.583334 15.1314V10.0994C0.583324 8.67217 0.583316 7.52991 0.658736 6.60681C0.736158 5.65921 0.898834 4.84029 1.28271 4.0869C1.8979 2.87952 2.87952 1.8979 4.0869 1.28271C4.84029 0.898834 5.65921 0.736158 6.60681 0.658736C7.52991 0.583316 8.67218 0.583324 10.0994 0.583334H15.1313C16.49 0.583325 17.5774 0.583317 18.4576 0.651848C19.3607 0.722172 20.1429 0.869848 20.8675 1.21882C22.1771 1.84953 23.2338 2.90621 23.8645 4.21584C24.2135 4.94046 24.3612 5.72261 24.4315 6.62576C24.4759 7.19639 24.4915 7.85416 24.497 8.6165C24.4973 8.66031 24.4976 8.70446 24.4979 8.74896C24.4979 8.74931 24.4979 8.74966 24.4979 8.75C24.4979 8.75148 24.4979 8.75295 24.4979 8.75443L24.5 8.75L24.5001 10.7689C24.5002 10.8664 24.5002 10.9615 24.5 11.0544V12.2213C24.5 12.6353 24.5001 12.8916 24.4854 13.1446C24.3959 14.6905 23.8977 16.1849 23.0418 17.4753C22.9017 17.6865 22.748 17.8914 22.4995 18.2228L22.4665 18.2668L22.4661 18.2673L22.4657 18.2678C22.2164 18.6003 22.0782 18.7845 21.9352 18.9653C21.064 20.0672 20.0674 21.0639 18.9655 21.9351C18.7847 22.078 18.6005 22.2162 18.268 22.4656L18.2675 22.4659L18.267 22.4663L18.2229 22.4993C17.8916 22.7479 17.6867 22.9016 17.4755 23.0417C16.1851 23.8976 14.6906 24.3957 13.1448 24.4852C12.8918 24.4999 12.6355 24.4999 12.2214 24.4999H11.1155C11.0033 24.5003 10.8877 24.5002 10.7686 24.5001L9.94399 24.5C9.77201 24.5 9.60439 24.5 9.44099 24.4999H8.75V24.4979ZM8.16667 25.0757C7.58183 25.0674 7.0545 25.05 6.5805 25.0131C5.64304 24.9401 4.77978 24.7835 3.96284 24.3901C2.53407 23.7021 1.38126 22.5493 0.693209 21.1205C0.299791 20.3036 0.143262 19.4403 0.07027 18.5028C-2.0301e-05 17.6001 -1.0984e-05 16.494 3.50801e-07 15.1541L3.16031e-07 10.0757C-1.21662e-05 8.66802 -2.2461e-05 7.50618 0.0773399 6.55931C0.157717 5.57553 0.330225 4.67135 0.762955 3.82207C1.43407 2.50493 2.50493 1.43407 3.82207 0.762955C4.67135 0.330225 5.57553 0.157717 6.55931 0.07734C7.50617 -2.2461e-05 8.66803 -1.21662e-05 10.0757 3.16031e-07L15.154 3.50801e-07C16.494 -1.0984e-05 17.6001 -2.0301e-05 18.5029 0.0702753C19.4403 0.143273 20.3036 0.299814 21.1206 0.69326C22.5493 1.3813 23.702 2.53404 24.3901 3.96273C24.7835 4.7797 24.9401 5.64299 25.0131 6.58048C25.0618 7.20707 25.0766 7.92684 25.0812 8.7495L25.0834 8.74999L25.0834 10.7684C25.0835 10.8654 25.0836 10.9611 25.0834 11.0546C25.0834 11.055 25.0834 11.0553 25.0834 11.0557L25.0834 12.2368C25.0834 12.6372 25.0834 12.9084 25.0678 13.1783C24.9723 14.8272 24.4409 16.4213 23.528 17.7977C23.3785 18.0231 23.2157 18.24 22.9755 18.5604L22.9339 18.6158L22.9335 18.6163L22.9324 18.6178L22.9308 18.6199L22.9305 18.6204L22.9277 18.6241C22.6827 18.9507 22.5405 19.1404 22.3928 19.3271C21.4935 20.4646 20.4647 21.4933 19.3273 22.3927C19.1405 22.5403 18.9507 22.6827 18.6239 22.9278L18.6206 22.9303L18.6201 22.9307L18.618 22.9322L18.617 22.933L18.6165 22.9333L18.616 22.9337L18.5605 22.9753C18.2402 23.2156 18.0233 23.3783 17.7979 23.5278C16.4215 24.4407 14.8274 24.9721 13.1785 25.0676C12.9085 25.0832 12.6372 25.0832 12.2369 25.0832H11.1164C11.0031 25.0836 10.8867 25.0835 10.7683 25.0834L9.94399 25.0833C9.94397 25.0833 9.94401 25.0833 9.94399 25.0833C9.77208 25.0833 9.60416 25.0833 9.44048 25.0832H8.16667V25.0757ZM16.8525 20.6105C17.2035 20.3473 17.3635 20.2272 17.5183 20.1047C18.4781 19.3459 19.3461 18.4779 20.1049 17.5182C20.2274 17.3633 20.3472 17.2037 20.6105 16.8526L21.177 15.6725C20.9649 15.7076 20.74 15.727 20.4987 15.7376C20.199 15.7508 19.8739 15.7505 19.5167 15.7502L19.356 15.7501C18.0899 15.7501 17.7073 15.7621 17.426 15.8446C16.664 16.0684 16.0682 16.6642 15.8445 17.4261C15.7619 17.7074 15.75 18.09 15.75 19.3561L15.7501 19.5168C15.7504 19.9552 15.7507 20.3451 15.7262 20.6993C15.708 20.9612 15.6762 21.2036 15.6208 21.4316C15.8142 21.3301 16.0028 21.2185 16.1857 21.0972C16.2168 21.0765 16.248 21.0553 16.2812 21.0322C16.406 20.945 16.56 20.8299 16.8519 20.6109L16.8525 20.6105ZM16.5019 20.1443C16.502 20.1442 16.5019 20.1443 16.5019 20.1443L16.5025 20.1439C16.8558 19.8789 17.0089 19.7639 17.1566 19.6471C18.0807 18.9164 18.9166 18.0806 19.6473 17.1564C19.7589 17.0152 19.8686 16.8695 20.1094 16.5485L20.2144 16.3298C19.9985 16.334 19.7766 16.3338 19.5497 16.3336L19.356 16.3335C19.3559 16.3335 19.3561 16.3335 19.356 16.3335C18.7203 16.3335 18.3217 16.3366 18.0485 16.3491C17.7768 16.3616 17.6649 16.3825 17.5903 16.4044C17.0188 16.5721 16.572 17.019 16.4042 17.5905C16.3823 17.6651 16.3615 17.777 16.349 18.0487C16.3364 18.3219 16.3333 18.7202 16.3333 19.3558C16.3333 19.3559 16.3333 19.3557 16.3333 19.3558L16.3334 19.5652C16.3336 19.807 16.3339 20.0436 16.3285 20.2742C16.3799 20.2358 16.4375 20.1926 16.5019 20.1443ZM10.793 21.5832C11.7481 21.5816 11.9067 21.5621 11.9953 21.5361C12.3763 21.4242 12.6742 21.1263 12.786 20.7453C12.7958 20.7121 12.8109 20.6459 12.8206 20.4321C12.8302 20.2177 12.8333 19.8927 12.8333 19.3564C12.8333 19.3563 12.8333 19.3564 12.8333 19.3564L12.8332 19.1158C12.8325 18.1594 12.8319 17.3333 13.0459 16.6045C13.5493 14.8901 14.8899 13.5495 16.6043 13.0461C17.3332 12.8321 18.1592 12.8327 19.1157 12.8334L19.356 12.8335C19.3561 12.8335 19.3559 12.8335 19.356 12.8335C19.8924 12.8335 20.2177 12.8304 20.4321 12.8207C20.646 12.8111 20.7121 12.796 20.7454 12.7862C21.1263 12.6744 21.4242 12.3764 21.5361 11.9955C21.5458 11.9623 21.561 11.8961 21.5706 11.6823C21.5803 11.4678 21.5833 11.1427 21.5833 10.6062V10.0001C21.5833 8.573 21.5821 7.60314 21.5236 6.85218C21.4666 6.12002 21.3631 5.74388 21.2367 5.48136C20.8927 4.76702 20.3163 4.19065 19.602 3.84663C19.3395 3.72021 18.9633 3.61672 18.2311 3.55971C17.4802 3.50124 16.5103 3.5 15.0832 3.5H10.15C8.65082 3.5 7.63193 3.50137 6.84432 3.56572C6.07693 3.62841 5.68465 3.74207 5.41103 3.88148C4.75247 4.21703 4.21703 4.75247 3.88148 5.41103C3.74207 5.68465 3.62841 6.07693 3.56572 6.84432C3.50137 7.63193 3.5 8.65082 3.5 10.15V15.0834C3.5 16.5104 3.50124 17.4802 3.55971 18.2311C3.61671 18.9633 3.72019 19.3394 3.8466 19.6019C4.19063 20.3163 4.76703 20.8927 5.48142 21.2367C5.74392 21.3631 6.12005 21.4666 6.85219 21.5236C7.51001 21.5748 8.3391 21.5822 9.50182 21.5832H10.793ZM19.356 13.4168L19.1809 13.4167C18.1684 13.4161 17.4162 13.4157 16.7686 13.6058C15.2448 14.0532 14.0531 15.2449 13.6056 16.7688C13.4155 17.4163 13.416 18.1686 13.4166 19.181L13.4166 19.3561C13.4166 20.4249 13.4047 20.7088 13.3458 20.9097C13.178 21.4811 12.7311 21.928 12.1596 22.0958C11.9711 22.1511 11.7094 22.165 10.794 22.1665H9.50134C8.34324 22.1656 7.49111 22.1585 6.80691 22.1052C6.04071 22.0455 5.58332 21.9333 5.22832 21.7623C4.39487 21.3609 3.7224 20.6885 3.32104 19.855C3.15008 19.5 3.03779 19.0426 2.97814 18.2764C2.91749 17.4976 2.91667 16.5011 2.91667 15.0834V10.15C2.91667 8.66061 2.91758 7.61374 2.98432 6.79682C3.04995 5.99351 3.17338 5.51585 3.36172 5.14621C3.75321 4.37788 4.37788 3.75321 5.14621 3.36172C5.51585 3.17338 5.99351 3.04995 6.79682 2.98432C7.61374 2.91758 8.66061 2.91667 10.15 2.91667H15.0832C16.501 2.91667 17.4975 2.91749 18.2764 2.97814C19.0427 3.0378 19.5001 3.1501 19.8551 3.32107C20.6885 3.72243 21.3609 4.39486 21.7623 5.22826C21.9332 5.58327 22.0455 6.04067 22.1052 6.8069C22.1658 7.58579 22.1667 8.58232 22.1667 10.0001V10.6062C22.1667 11.675 22.1548 11.959 22.0958 12.1598C21.928 12.7313 21.4811 13.1781 20.9097 13.3459C20.7089 13.4049 20.4249 13.4168 19.356 13.4168ZM7 8.45833C7 7.33075 7.91409 6.41667 9.04167 6.41667C10.1692 6.41667 11.0833 7.33075 11.0833 8.45833V10.2083C11.0833 11.3359 10.1692 12.25 9.04167 12.25C7.91409 12.25 7 11.3359 7 10.2083V8.45833ZM14 8.45833C14 7.33075 14.9141 6.41667 16.0417 6.41667C17.1692 6.41667 18.0833 7.33075 18.0833 8.45833V10.2083C18.0833 11.3359 17.1692 12.25 16.0417 12.25C14.9141 12.25 14 11.3359 14 10.2083V8.45833ZM7.58333 8.45833C7.58333 7.65292 8.23625 7 9.04167 7C9.84708 7 10.5 7.65292 10.5 8.45833V10.2083C10.5 11.0137 9.84708 11.6667 9.04167 11.6667C8.23625 11.6667 7.58333 11.0137 7.58333 10.2083V8.45833ZM16.0417 7C15.2363 7 14.5833 7.65292 14.5833 8.45833V10.2083C14.5833 11.0137 15.2363 11.6667 16.0417 11.6667C16.8471 11.6667 17.5 11.0137 17.5 10.2083V8.45833C17.5 7.65292 16.8471 7 16.0417 7Z" fill="black" fill-opacity="0.12"/>
</g>
</svg>
