<svg preserveAspectRatio="none" width="100%" height="100%" overflow="visible" style="display: block;" viewBox="0 0 27.7905 20.0071" fill="none" xmlns="http://www.w3.org/2000/svg">
<g id="text_latin">
<g id="Union">
<path fill-rule="evenodd" clip-rule="evenodd" d="M6.39739 0.583333C6.09279 0.583333 5.82477 0.784436 5.73961 1.07688L0.594897 18.7432C0.541701 18.9258 0.678715 19.1084 0.868973 19.1084H2.83531C3.14234 19.1084 3.41189 18.9042 3.4949 18.6086L5.11928 12.8244C5.18846 12.5781 5.41308 12.4079 5.66894 12.4079H10.7219C10.9777 12.4079 11.2023 12.5781 11.2715 12.8244L12.8959 18.6086C12.9789 18.9042 13.2485 19.1084 13.5555 19.1084H15.5214C15.7118 19.1084 15.8488 18.9256 15.7953 18.7428L10.6275 1.0761C10.5421 0.784041 10.2743 0.583333 9.96997 0.583333H6.39739ZM10.4609 9.93785L8.47023 2.84951C8.39224 2.57181 7.99856 2.57181 7.92057 2.84951L5.92993 9.93785H10.4609Z" fill="white"/>
<path fill-rule="evenodd" clip-rule="evenodd" d="M24.0495 17.429L24.4715 18.7155C24.5484 18.9499 24.7672 19.1084 25.0139 19.1084H26.9206C27.117 19.1084 27.2547 18.9149 27.1903 18.7294L26.4141 16.4929C26.3933 16.4327 26.3826 16.3694 26.3826 16.3057V10.3583C26.3826 8.76416 25.9732 7.52039 25.1543 6.62698C24.3354 5.71606 23.1152 5.26059 21.4935 5.26059C20.0967 5.26059 18.9487 5.62847 18.0495 6.36422C17.2939 6.9678 16.7651 7.73221 16.463 8.65746C16.366 8.9548 16.5607 9.25871 16.8655 9.32905L18.2507 9.64875C18.5631 9.72084 18.8677 9.51882 18.9794 9.21836C19.1416 8.78213 19.3775 8.42635 19.6872 8.15103C20.1207 7.74812 20.7068 7.54667 21.4454 7.54667C22.2 7.54667 22.778 7.78316 23.1794 8.25614C23.5808 8.71161 23.7815 9.35976 23.7815 10.2006V10.2006C23.7815 10.3257 23.6953 10.4344 23.5735 10.4628L19.8558 11.3305C19.0851 11.5057 18.4028 11.7772 17.8087 12.1451C17.2307 12.4955 16.7811 12.9597 16.46 13.5378C16.1389 14.0983 15.9783 14.764 15.9783 15.5348C15.9783 16.726 16.3636 17.672 17.1343 18.3727C17.9211 19.0734 18.9326 19.4238 20.1689 19.4238C21.1002 19.4238 21.903 19.2311 22.5773 18.8457C23.1967 18.4917 23.6874 18.0195 24.0495 17.429ZM23.7815 14.0896V12.4018L20.9396 13.1173C20.201 13.2925 19.631 13.5553 19.2296 13.9056C18.8443 14.2385 18.6516 14.7115 18.6516 15.3246C18.6516 15.9552 18.8443 16.437 19.2296 16.7698C19.631 17.1026 20.1529 17.2691 20.7951 17.2691C21.4052 17.2691 21.927 17.1377 22.3606 16.8749C22.8101 16.5946 23.1553 16.218 23.3962 15.745C23.6531 15.2545 23.7815 14.7027 23.7815 14.0896Z" fill="white"/>
</g>
<path id="Union (Stroke)" fill-rule="evenodd" clip-rule="evenodd" d="M19.6876 8.15103C19.3779 8.42635 19.142 8.78213 18.9798 9.21836C18.868 9.51882 18.5634 9.72084 18.2511 9.64875L16.8659 9.32905C16.5611 9.25871 16.3663 8.9548 16.4634 8.65746C16.7654 7.73221 17.2943 6.9678 18.0499 6.36422C18.949 5.62847 20.097 5.26059 21.4939 5.26059C23.1156 5.26059 24.3358 5.71606 25.1547 6.62698C25.9735 7.52039 26.3829 8.76416 26.3829 10.3583V16.3057C26.3829 16.3694 26.3936 16.4327 26.4145 16.4929L27.1907 18.7294C27.255 18.9149 27.1173 19.1084 26.921 19.1084H25.0143C24.7676 19.1084 24.5487 18.9499 24.4718 18.7155L24.0498 17.429C23.9236 17.6348 23.7818 17.8263 23.6243 18.0034C23.33 18.3343 22.9812 18.6151 22.5777 18.8457C21.9033 19.2311 21.1005 19.4238 20.1693 19.4238C18.933 19.4238 17.9214 19.0734 17.1347 18.3727C16.364 17.672 15.9787 16.726 15.9787 15.5348C15.9787 14.764 16.1392 14.0983 16.4603 13.5378C16.7815 12.9597 17.231 12.4955 17.809 12.1451C18.4031 11.7772 19.0855 11.5057 19.8562 11.3305L23.5739 10.4628C23.6957 10.4344 23.7819 10.3257 23.7819 10.2006C23.7819 9.35976 23.5812 8.71161 23.1798 8.25614C22.7784 7.78316 22.2004 7.54667 21.4457 7.54667C20.7072 7.54667 20.1211 7.74813 19.6876 8.15103ZM17.5043 11.6477C18.1589 11.2427 18.9015 10.9495 19.7253 10.762C19.7259 10.7619 19.7264 10.7618 19.7269 10.7617L23.1917 9.95298C23.1563 9.33737 22.9873 8.92004 22.7421 8.64183L22.7385 8.63774L22.735 8.63359C22.4683 8.31928 22.0697 8.13 21.4457 8.13C20.8163 8.13 20.3853 8.29899 20.0847 8.57832L20.08 8.58271L20.0752 8.587C19.8452 8.79147 19.6596 9.06366 19.5265 9.42166C19.3332 9.94162 18.7718 10.3676 18.1199 10.2171L16.7347 9.89744C16.1362 9.75931 15.6931 9.13727 15.9089 8.47643C16.2456 7.44481 16.8394 6.58537 17.6831 5.91058C18.7061 5.07468 19.992 4.67726 21.4939 4.67726C23.2235 4.67726 24.6244 5.16587 25.5867 6.235C26.5306 7.26612 26.9663 8.66657 26.9663 10.3583V16.3036L27.7418 18.5381C27.9377 19.1026 27.5185 19.6918 26.921 19.6918H25.0143C24.5155 19.6918 24.073 19.3713 23.9176 18.8973L23.8303 18.6313C23.546 18.9074 23.2246 19.1479 22.8671 19.3521C22.0886 19.7971 21.1818 20.0071 20.1693 20.0071C18.8162 20.0071 17.6584 19.6203 16.7467 18.8083L16.7423 18.8043C16.5694 18.6471 16.4136 18.4797 16.2747 18.3024L16.3556 18.5791C16.5183 19.1352 16.1012 19.6918 15.5217 19.6918H13.5559C12.9874 19.6918 12.4884 19.3136 12.3347 18.7663L10.7128 12.9912H5.67871L4.05687 18.7663C3.90318 19.3136 3.40413 19.6918 2.83568 19.6918H0.869339C0.290293 19.6918 -0.126707 19.136 0.0351953 18.5801L5.17991 0.913783C5.33759 0.372331 5.83381 0 6.39776 0H9.97034C10.5337 0 11.0296 0.371599 11.1878 0.912323L15.3995 15.3107C15.4283 14.5482 15.6065 13.8562 15.9522 13.2512C16.3232 12.5847 16.8437 12.0486 17.5043 11.6477ZM21.0746 13.6849C20.3915 13.8469 19.9198 14.0778 19.6136 14.3451L19.6113 14.3471C19.3804 14.5466 19.2353 14.8431 19.2353 15.3246C19.2353 15.8264 19.3822 16.1283 19.607 16.3246C19.8808 16.5496 20.2597 16.6857 20.7955 16.6857C21.3191 16.6857 21.7306 16.574 22.0555 16.3779C22.4132 16.1541 22.6845 15.8578 22.8767 15.4803L22.8798 15.4744C23.0884 15.076 23.1985 14.6187 23.1985 14.0896V13.1502L21.0746 13.6849ZM23.7819 12.4018V14.0896C23.7819 14.7027 23.6534 15.2545 23.3965 15.745C23.1557 16.218 22.8105 16.5946 22.3609 16.8749C21.9274 17.1377 21.4056 17.2691 20.7955 17.2691C20.1532 17.2691 19.6314 17.1026 19.23 16.7698C18.8447 16.437 18.652 15.9552 18.652 15.3246C18.652 14.7115 18.8447 14.2385 19.23 13.9056C19.6314 13.5553 20.2014 13.2925 20.94 13.1173L23.7819 12.4018ZM8.19577 4.0284L6.70001 9.35452H9.69152L8.19577 4.0284ZM8.4706 2.84951C8.39261 2.57181 7.99893 2.57181 7.92094 2.84951L5.93029 9.93785H10.4612L8.4706 2.84951ZM5.73997 1.07688C5.82514 0.784435 6.09316 0.583333 6.39776 0.583333H9.97034C10.2746 0.583333 10.5425 0.78404 10.6279 1.0761L15.7957 18.7428C15.8492 18.9256 15.7121 19.1084 15.5217 19.1084H13.5559C13.2488 19.1084 12.9793 18.9042 12.8963 18.6086L11.2719 12.8244C11.2027 12.5781 10.9781 12.4079 10.7222 12.4079H5.66931C5.41344 12.4079 5.18882 12.5781 5.11965 12.8244L3.49526 18.6086C3.41225 18.9042 3.14271 19.1084 2.83568 19.1084H0.869339C0.679081 19.1084 0.542067 18.9258 0.595263 18.7432L5.73997 1.07688Z" fill="black" fill-opacity="0.12"/>
</g>
</svg>
