<svg preserveAspectRatio="none" width="100%" height="100%" overflow="visible" style="display: block;" viewBox="0 0 28 28" fill="none" xmlns="http://www.w3.org/2000/svg">
<g id="Icon_Color/Track">
<path id="Subtract (Stroke)" fill-rule="evenodd" clip-rule="evenodd" d="M0.0496222 7.92037C0.100254 7.30067 0.205435 6.78316 0.445057 6.31287C0.83654 5.54454 1.46121 4.91987 2.22954 4.52839C2.69982 4.28877 3.21733 4.18359 3.83704 4.13296C4.44447 4.08333 5.19928 4.08333 6.15743 4.08333H21.8426C22.8007 4.08333 23.5555 4.08333 24.163 4.13296C24.7827 4.18359 25.3002 4.28877 25.7705 4.52839C26.5388 4.91987 27.1635 5.54454 27.5549 6.31287C27.7946 6.78316 27.8997 7.30067 27.9504 7.92037C28 8.5278 28 9.2826 28 10.2407V17.7593C28 18.7174 28 19.4722 27.9504 20.0796C27.8997 20.6993 27.7946 21.2168 27.5549 21.6871C27.1635 22.4555 26.5388 23.0801 25.7705 23.4716C25.3002 23.7112 24.7827 23.8164 24.163 23.867C23.5555 23.9167 22.8007 23.9167 21.8426 23.9167H6.15741C5.19927 23.9167 4.44447 23.9167 3.83704 23.867C3.21733 23.8164 2.69982 23.7112 2.22954 23.4716C1.46121 23.0801 0.83654 22.4555 0.445057 21.6871C0.205435 21.2168 0.100254 20.6993 0.0496222 20.0796C-7.02341e-06 19.4722 -3.82535e-06 18.7174 6.88245e-08 17.7592V10.2408C-3.82535e-06 9.28261 -7.02341e-06 8.5278 0.0496222 7.92037ZM6.42268 7.5977C6.41712 7.66571 6.41667 7.76036 6.41667 7.93333V20.0667C6.41667 20.2396 6.41712 20.3343 6.42268 20.4023C6.4229 20.405 6.42312 20.4076 6.42335 20.41C6.42576 20.4102 6.42833 20.4104 6.43104 20.4107C6.49904 20.4162 6.59369 20.4167 6.76667 20.4167H21.2333C21.4063 20.4167 21.501 20.4162 21.569 20.4107C21.5717 20.4104 21.5742 20.4102 21.5767 20.41C21.5769 20.4076 21.5771 20.405 21.5773 20.4023C21.5829 20.3343 21.5833 20.2396 21.5833 20.0667V7.93333C21.5833 7.76036 21.5829 7.66571 21.5773 7.5977C21.5771 7.595 21.5769 7.59244 21.5767 7.59002C21.5742 7.58979 21.5717 7.58957 21.569 7.58934C21.501 7.58379 21.4063 7.58333 21.2333 7.58333H6.76667C6.59369 7.58333 6.49904 7.58379 6.43104 7.58934C6.42833 7.58957 6.42577 7.58979 6.42335 7.59001C6.42312 7.59243 6.4229 7.595 6.42268 7.5977Z" fill="black" fill-opacity="0.1"/>
<g id="track">
<path id="Subtract" fill-rule="evenodd" clip-rule="evenodd" d="M0.964811 6.5777C0.583333 7.32639 0.583333 8.30648 0.583333 10.2667V17.7333C0.583333 19.6935 0.583333 20.6736 0.964811 21.4223C1.30037 22.0809 1.8358 22.6163 2.49437 22.9519C3.24306 23.3333 4.22315 23.3333 6.18333 23.3333H21.8167C23.7769 23.3333 24.7569 23.3333 25.5056 22.9519C26.1642 22.6163 26.6996 22.0809 27.0352 21.4223C27.4167 20.6736 27.4167 19.6935 27.4167 17.7333V10.2667C27.4167 8.30648 27.4167 7.32639 27.0352 6.5777C26.6996 5.91913 26.1642 5.3837 25.5056 5.04814C24.7569 4.66667 23.7769 4.66667 21.8167 4.66667H6.18333C4.22315 4.66667 3.24306 4.66667 2.49437 5.04814C1.8358 5.3837 1.30037 5.91913 0.964811 6.5777ZM5.89691 7.31851C5.83333 7.44329 5.83333 7.60664 5.83333 7.93333V20.0667C5.83333 20.3934 5.83333 20.5567 5.89691 20.6815C5.95284 20.7913 6.04208 20.8805 6.15184 20.9364C6.27662 21 6.43997 21 6.76667 21H21.2333C21.56 21 21.7234 21 21.8482 20.9364C21.9579 20.8805 22.0472 20.7913 22.1031 20.6815C22.1667 20.5567 22.1667 20.3934 22.1667 20.0667V7.93333C22.1667 7.60664 22.1667 7.44329 22.1031 7.31851C22.0472 7.20874 21.9579 7.11951 21.8482 7.06358C21.7234 7 21.56 7 21.2333 7H6.76667C6.43997 7 6.27662 7 6.15184 7.06358C6.04208 7.11951 5.95284 7.20874 5.89691 7.31851ZM2.77988 10.84C2.9132 10.5467 3.25902 10.417 3.55231 10.5503L4.61441 11.0331C4.9077 11.1664 5.03738 11.5122 4.90407 11.8055L4.01628 13.7587C3.94657 13.912 3.94657 14.0881 4.01628 14.2414L4.90407 16.1946C5.03738 16.4878 4.9077 16.8337 4.61441 16.967L3.55231 17.4498C3.25902 17.5831 2.91319 17.4534 2.77988 17.1601L1.45321 14.2414C1.3835 14.0881 1.3835 13.912 1.45321 13.7587L2.77988 10.84ZM23.9837 13.7586C24.0534 13.912 24.0534 14.088 23.9837 14.2414L23.0959 16.1945C22.9626 16.4878 23.0923 16.8337 23.3856 16.967L24.4477 17.4497C24.741 17.5831 25.0868 17.4534 25.2201 17.1601L26.5468 14.2414C26.6165 14.088 26.6165 13.912 26.5468 13.7586L25.2201 10.84C25.0868 10.5467 24.741 10.417 24.4477 10.5503L23.3856 11.0331C23.0923 11.1664 22.9626 11.5122 23.0959 11.8055L23.9837 13.7586Z" fill="white"/>
</g>
</g>
</svg>
