<svg preserveAspectRatio="none" width="100%" height="100%" overflow="visible" style="display: block;" viewBox="0 0 20 20" fill="none" xmlns="http://www.w3.org/2000/svg">
<g id="Leading Icon">
<path id="Tint" d="M16.3373 6.15625C17.3233 6.15625 18.0934 7.00729 17.9955 7.98828L17.1948 15.582C17.1096 16.434 16.3928 17.0829 15.5366 17.083H4.46332C3.60715 17.0829 2.89032 16.434 2.80512 15.582L2.00434 7.98828C1.90645 7.00729 2.67662 6.15625 3.66254 6.15625H16.3373ZM4.46332 15.417H15.5366L16.3373 7.82324H3.66254L4.46332 15.417ZM15.8745 2.91699C16.1042 2.91725 16.2903 3.1032 16.2905 3.33301V4.43555C16.2905 4.66551 16.1044 4.85228 15.8745 4.85254H4.12641C3.89629 4.85254 3.70941 4.66567 3.70941 4.43555V3.33301C3.70959 3.10304 3.8964 2.91699 4.12641 2.91699H15.8745Z" fill="black"/>
</g>
</svg>
