<svg preserveAspectRatio="none" width="100%" height="100%" overflow="visible" style="display: block;" viewBox="0 0 14 14" fill="none" xmlns="http://www.w3.org/2000/svg">
<g id="Leading Icon">
<path id="Tint" d="M2.91697 6.708C3.07788 6.7082 3.20798 6.83904 3.20799 6.99999V10.792H6.99998C7.16093 10.792 7.29179 10.9221 7.29197 11.083V11.667C7.2918 11.8279 7.16094 11.958 6.99998 11.958H2.62498C2.30281 11.958 2.04197 11.6972 2.04197 11.375V6.99999C2.04198 6.839 2.17204 6.70814 2.33299 6.708H2.91697ZM11.375 2.04198C11.6971 2.04201 11.958 2.30284 11.958 2.62499V6.99999C11.958 7.16095 11.8279 7.29178 11.667 7.29198H11.083C10.922 7.29183 10.792 7.16098 10.792 6.99999V3.208H6.99998C6.839 3.208 6.70816 3.07792 6.70799 2.91698V2.333C6.70817 2.17207 6.83901 2.04198 6.99998 2.04198H11.375Z" fill="black"/>
</g>
</svg>
