<svg preserveAspectRatio="none" width="100%" height="100%" overflow="visible" style="display: block;" viewBox="0 0 14 14" fill="none" xmlns="http://www.w3.org/2000/svg">
<g id="Leading Icon">
<path id="Tint" d="M6.20897 0.907214C6.36545 0.907508 6.48222 1.05072 6.45116 1.20409L5.8037 4.37499H9.11913L9.76952 1.19432C9.80363 1.02731 9.95062 0.907214 10.1211 0.907214H10.8262C10.9828 0.907275 11.1003 1.05064 11.0693 1.20409L10.4219 4.37499H12.332C12.4902 4.37499 12.6088 4.52124 12.5752 4.67577L12.4482 5.25878C12.4124 5.42354 12.2662 5.54178 12.0976 5.54198H10.1836L9.64647 8.16698H11.6894C11.8475 8.16698 11.965 8.31239 11.9316 8.46678L11.8047 9.05077C11.7688 9.21565 11.6228 9.333 11.4541 9.333H9.40819L8.75194 12.5459C8.71783 12.7129 8.57083 12.833 8.40038 12.833H7.6953C7.53869 12.8329 7.42106 12.6896 7.45213 12.5361L8.10643 9.333H4.791L4.13475 12.5459C4.10064 12.7129 3.95365 12.833 3.78319 12.833H3.0742C2.91747 12.833 2.79991 12.6897 2.83104 12.5361L3.48534 9.333H1.48729C1.32914 9.333 1.21149 9.18675 1.2451 9.03221L1.37206 8.44921C1.40793 8.28432 1.5539 8.16698 1.72264 8.16698H3.72362L4.25975 5.54198H2.18065C2.02255 5.54198 1.90495 5.39568 1.93846 5.2412L2.06541 4.65721C2.10139 4.49247 2.24735 4.37499 2.416 4.37499H4.49803L5.14745 1.19432C5.18154 1.0274 5.32866 0.907331 5.49901 0.907214H6.20897ZM5.02928 8.16698H8.34471L8.88084 5.54198H5.56541L5.02928 8.16698Z" fill="black"/>
</g>
</svg>
