<svg preserveAspectRatio="none" width="100%" height="100%" overflow="visible" style="display: block;" viewBox="0 0 14 14" fill="none" xmlns="http://www.w3.org/2000/svg">
<g id="Leading Icon">
<path id="Tint" d="M6.98338 1.04784C8.15938 1.04784 9.19578 1.27171 10.0918 1.71971C10.9969 2.15832 11.6968 2.78824 12.1914 3.60936C12.6954 4.42136 12.9472 5.37381 12.9472 6.46581C12.9472 7.49236 12.7093 8.33205 12.2334 8.98534C11.7574 9.62931 11.0857 9.9521 10.2178 9.95214C9.67642 9.95214 9.247 9.83488 8.92967 9.60155C8.70726 9.43146 8.56004 9.20365 8.48436 8.91893C8.33241 9.20046 8.12196 9.4282 7.85154 9.60155C7.48754 9.83488 7.04413 9.95214 6.52146 9.95214C5.99893 9.95211 5.53698 9.83046 5.13572 9.58788C4.73439 9.34521 4.42125 9.00408 4.19725 8.56542C3.97337 8.12684 3.86131 7.62287 3.86131 7.0537C3.86131 6.48437 3.96891 5.98499 4.18357 5.55565C4.40757 5.11699 4.72072 4.77586 5.12205 4.53319C5.52313 4.29081 5.98023 4.16998 6.49314 4.16991C7.01568 4.16991 7.45493 4.29065 7.80955 4.53319C8.03703 4.67901 8.2191 4.86355 8.35545 5.08593V4.5869C8.35569 4.42602 8.48651 4.29589 8.64744 4.29589H9.30955C9.47049 4.29589 9.6013 4.42602 9.60154 4.5869V8.1035C9.60154 8.3555 9.66717 8.54272 9.79783 8.66405C9.93775 8.77585 10.1243 8.83198 10.3574 8.83202C10.7587 8.83202 11.0719 8.61248 11.2959 8.17382C11.5292 7.72584 11.6455 7.17041 11.6455 6.5078C11.6455 5.62113 11.4496 4.85059 11.0576 4.19725C10.6749 3.54408 10.1378 3.04448 9.44725 2.69921C8.75669 2.34471 7.94915 2.16796 7.02537 2.16796C6.06424 2.16799 5.21039 2.36831 4.46385 2.76952C3.72657 3.17082 3.15185 3.73062 2.74119 4.44921C2.33052 5.16787 2.12596 6.00404 2.12596 6.95604C2.12601 7.94521 2.33058 8.80865 2.74119 9.54589C3.15179 10.2738 3.73538 10.8336 4.49119 11.2256C5.24719 11.6176 6.13933 11.8135 7.166 11.8135H10.1084C10.2693 11.8137 10.3994 11.9445 10.3994 12.1055V12.6982C10.3993 12.8591 10.2692 12.989 10.1084 12.9892H7.08201C5.82201 12.9892 4.71999 12.7374 3.77732 12.2334C2.83487 11.7388 2.107 11.0389 1.59373 10.1338C1.08974 9.22845 0.837876 8.1737 0.837871 6.96971C0.837871 5.79379 1.08979 4.76259 1.59373 3.87596C2.10704 2.98 2.83038 2.28469 3.76365 1.79003C4.69692 1.29539 5.77014 1.04787 6.98338 1.04784ZM6.78807 5.23339C6.29342 5.23339 5.8963 5.39698 5.59764 5.72362C5.3083 6.05029 5.16404 6.4937 5.16404 7.0537C5.16405 7.61369 5.30831 8.05711 5.59764 8.38378C5.8963 8.7104 6.29343 8.87401 6.78807 8.87401C7.2918 8.87391 7.68828 8.71028 7.97752 8.38378C8.27618 8.05711 8.42576 7.61369 8.42576 7.0537C8.42576 6.4937 8.27619 6.05029 7.97752 5.72362C7.68828 5.39711 7.29181 5.23348 6.78807 5.23339Z" fill="black"/>
</g>
</svg>
