<svg preserveAspectRatio="none" width="100%" height="100%" overflow="visible" style="display: block;" viewBox="0 0 20 20" fill="none" xmlns="http://www.w3.org/2000/svg">
<g id="Leading Icon">
<path id="Tint" d="M3.7499 8.33301C4.67038 8.33301 5.41689 9.07953 5.41689 10C5.41689 10.9205 4.67038 11.667 3.7499 11.667C2.82943 11.667 2.08291 10.9205 2.08291 10C2.08291 9.07953 2.82943 8.33301 3.7499 8.33301ZM9.9999 8.33301C10.9204 8.33301 11.6669 9.07953 11.6669 10C11.6669 10.9205 10.9204 11.667 9.9999 11.667C9.07943 11.667 8.33291 10.9205 8.33291 10C8.33291 9.07953 9.07943 8.33301 9.9999 8.33301ZM16.2499 8.33301C17.1704 8.33301 17.9169 9.07953 17.9169 10C17.9169 10.9205 17.1704 11.667 16.2499 11.667C15.3294 11.667 14.5829 10.9205 14.5829 10C14.5829 9.07953 15.3294 8.33301 16.2499 8.33301Z" fill="#202020"/>
</g>
</svg>
