<svg preserveAspectRatio="none" width="100%" height="100%" overflow="visible" style="display: block;" viewBox="0 0 24 24" fill="none" xmlns="http://www.w3.org/2000/svg">
<g id="Item">
<path id="Tint" d="M9.93951 3.64656C10.1348 3.45137 10.4513 3.45132 10.6465 3.64656L11.3536 4.35359C11.5487 4.54883 11.5487 4.86538 11.3536 5.06062L5.41412 11.0001H21.5001C21.7761 11.0002 22.0001 11.224 22.0001 11.5001V12.5001C22 12.7761 21.7761 13 21.5001 13.0001H5.41412L11.3536 18.9395C11.5487 19.1348 11.5488 19.4513 11.3536 19.6466L10.6465 20.3536C10.4513 20.5488 10.1348 20.5487 9.93951 20.3536L2.29302 12.7071C1.9025 12.3166 1.9025 11.6836 2.29302 11.293L9.93951 3.64656Z" fill="black"/>
</g>
</svg>
