<svg preserveAspectRatio="none" width="100%" height="100%" overflow="visible" style="display: block;" viewBox="0 0 20 20" fill="none" xmlns="http://www.w3.org/2000/svg">
<g id="Leading Icon">
<path id="Tint" d="M9.4111 6.91113C9.73654 6.58574 10.2634 6.58571 10.5888 6.91113L16.1279 12.4492C16.2906 12.6119 16.2906 12.8763 16.1279 13.0391L15.539 13.6279C15.3763 13.7906 15.1119 13.7906 14.9492 13.6279L10.833 9.51172V18.75C10.833 18.98 10.6469 19.1668 10.417 19.167H9.58297C9.35296 19.1669 9.16696 18.98 9.16696 18.75V9.51172L5.05075 13.6279C4.88803 13.7906 4.62362 13.7906 4.4609 13.6279L3.87204 13.0391C3.70932 12.8763 3.70932 12.6119 3.87204 12.4492L9.4111 6.91113ZM3.81247 3.22363C3.97518 3.06091 4.23959 3.06091 4.40231 3.22363L6.75875 5.58105C6.92135 5.74378 6.92143 6.00724 6.75875 6.16992L6.16989 6.75879C6.00717 6.92151 5.74276 6.92151 5.58004 6.75879L3.2236 4.40234C3.06088 4.23963 3.06088 3.97522 3.2236 3.8125L3.81247 3.22363ZM15.5976 3.22363C15.7603 3.06091 16.0247 3.06091 16.1875 3.22363L16.7763 3.8125C16.9391 3.97522 16.9391 4.23963 16.7763 4.40234L14.4189 6.75879C14.2562 6.92147 13.9928 6.9215 13.83 6.75879L13.2412 6.16992C13.0785 6.00721 13.0785 5.74378 13.2412 5.58105L15.5976 3.22363ZM10.417 0.833008C10.6469 0.833231 10.833 1.02002 10.833 1.25V4.58301C10.833 4.81299 10.6469 4.99978 10.417 5H9.58297C9.35296 4.99987 9.16696 4.81305 9.16696 4.58301V1.25C9.16696 1.01996 9.35296 0.833136 9.58297 0.833008H10.417Z" fill="white"/>
</g>
</svg>
