<svg preserveAspectRatio="none" width="100%" height="100%" overflow="visible" style="display: block;" viewBox="0 0 20 20" fill="none" xmlns="http://www.w3.org/2000/svg">
<g id="Leading Icon" clip-path="url(#clip0_0_2192)">
<path id="Tint" d="M9.9999 0.833008C15.0625 0.833008 19.1669 4.93739 19.1669 10C19.1669 15.0626 15.0625 19.167 9.9999 19.167C4.93729 19.167 0.83291 15.0626 0.83291 10C0.83291 4.93739 4.93729 0.833008 9.9999 0.833008ZM2.8085 7.86328C2.6076 8.54044 2.4999 9.25765 2.4999 10C2.4999 13.784 5.30269 16.9139 8.94521 17.4268C8.89661 17.1728 8.87115 16.9309 8.86709 16.7646C8.84341 15.7947 8.7765 14.6408 8.62197 14.4951C8.45095 14.3351 7.79276 13.1631 7.33096 12.3145C7.29718 12.2524 7.26929 12.1871 7.24795 12.1201C7.11887 11.7153 6.92132 11.2506 6.51455 11.1279C5.94246 10.9556 5.40949 10.6729 4.94521 10.2969C4.71366 10.1093 4.47981 9.80741 4.21768 9.46875C4.03126 9.22791 3.82987 8.96867 3.60537 8.71875C3.36647 8.4528 3.04279 8.10935 2.8085 7.86328ZM9.9999 2.5C9.83466 2.5 9.6703 2.5051 9.50771 2.51562C9.09214 2.69444 8.88832 2.92542 8.77432 3.05664C8.59721 3.2605 8.62598 3.57085 8.83779 3.73828C9.11472 3.95686 9.62356 3.77452 9.59463 3.46094C9.58286 3.33302 9.58374 3.12515 9.79189 2.91699C10.0232 2.68573 10.424 2.83148 10.6562 3.06055C10.7694 3.1725 10.8329 3.32511 10.8329 3.48438V5.08887C10.8329 5.11721 10.8344 5.15228 10.8358 5.19336C10.8446 5.44481 10.8615 5.9213 10.6562 6.45801C10.4169 7.08301 9.31338 8.30664 9.31338 8.30664C9.02721 8.68295 8.55162 8.86301 8.08779 8.77148L7.82607 8.7207C7.2936 8.61582 6.7776 8.96542 6.67861 9.49902C6.61387 9.84877 6.7451 10.2064 7.02041 10.4316C7.34033 10.6933 7.82005 10.6657 8.23037 10.6162C8.34532 10.6024 8.46504 10.5987 8.58584 10.6016C9.5832 10.6249 10.3337 11.0858 10.6552 11.4365L11.3407 12.1855C11.5685 12.4342 12.3704 12.5 12.7079 12.5C13.5412 12.5 13.5778 13.301 13.3983 14.0566L13.3271 14.3555C13.2681 14.6038 13.1445 14.8325 12.9687 15.0176L11.411 16.6572C11.2666 16.8093 11.1854 17.0109 11.1854 17.2207C11.1854 17.2781 11.1783 17.3421 11.1649 17.4102C14.0129 16.9658 16.3307 14.9189 17.1659 12.2207L15.9179 9.44727C15.6016 8.7443 15.6386 7.93863 15.9267 7.22363C16.0995 6.79456 16.2602 6.31636 16.3036 5.93555C14.9681 3.86851 12.644 2.5 9.9999 2.5Z" fill="#202020"/>
</g>
<defs>
<clipPath id="clip0_0_2192">
<rect width="20" height="20" fill="white"/>
</clipPath>
</defs>
</svg>
