<svg preserveAspectRatio="none" width="100%" height="100%" overflow="visible" style="display: block;" viewBox="0 0 28 28" fill="none" xmlns="http://www.w3.org/2000/svg">
<g id="Icon/Whatsapp">
<path id="whatsapp" d="M19.363 16.1064C19.1023 15.9759 17.8204 15.3452 17.5814 15.2581C17.3424 15.1711 17.1686 15.1277 16.9948 15.3886C16.821 15.6496 16.3213 16.2369 16.1692 16.4109C16.0172 16.5849 15.865 16.6068 15.6043 16.4762C15.3436 16.3457 14.5035 16.0704 13.5076 15.1821C12.7326 14.4907 12.2093 13.6369 12.0572 13.3759C11.9051 13.1149 12.041 12.9738 12.1715 12.8438C12.2888 12.7269 12.4323 12.5393 12.5626 12.387C12.693 12.2348 12.7364 12.126 12.8233 11.9521C12.9102 11.778 12.8668 11.6258 12.8016 11.4953C12.7364 11.3648 12.215 10.0814 11.9977 9.55933C11.7861 9.05099 11.5711 9.11984 11.4111 9.11178C11.2592 9.10423 11.0852 9.10263 10.9114 9.10263C10.7376 9.10263 10.4551 9.16787 10.2161 9.42884C9.97714 9.68987 9.30359 10.3207 9.30359 11.6039C9.30359 12.8873 10.2378 14.1271 10.3682 14.3011C10.4986 14.4751 12.2067 17.1086 14.8222 18.2379C15.4442 18.5066 15.9299 18.667 16.3085 18.7872C16.9331 18.9856 17.5015 18.9576 17.9507 18.8905C18.4517 18.8157 19.4933 18.2598 19.7106 17.6508C19.9279 17.0417 19.9278 16.5197 19.8627 16.4109C19.7975 16.3022 19.6237 16.2369 19.363 16.1064ZM14.6059 22.6008H14.6024C13.0462 22.6002 11.5197 22.182 10.1882 21.3919L9.87144 21.2039L6.58896 22.0649L7.46509 18.8645L7.25891 18.5364C6.39073 17.1555 5.93218 15.5596 5.93288 13.9208C5.93478 9.13896 9.82546 5.24857 14.6094 5.24857C16.9259 5.24937 19.1035 6.15267 20.741 7.79206C22.3785 9.43135 23.2797 11.6104 23.2788 13.9278C23.2768 18.71 19.3862 22.6008 14.6059 22.6008ZM21.987 6.54616C20.0169 4.5738 17.397 3.48712 14.6056 3.48597C8.8541 3.48597 4.17309 8.16668 4.17079 13.9199C4.17004 15.759 4.65051 17.5541 5.56367 19.1366L4.08333 24.5437L9.61491 23.0927C11.139 23.924 12.855 24.3622 14.6014 24.3627H14.6057C20.3565 24.3627 25.038 19.6816 25.0404 13.9283C25.0414 11.1401 23.957 8.51847 21.987 6.54616Z" fill="black" fill-opacity="0.34"/>
</g>
</svg>
