<svg preserveAspectRatio="none" width="100%" height="100%" overflow="visible" style="display: block;" viewBox="0 0 20 20" fill="none" xmlns="http://www.w3.org/2000/svg">
<g id="Leading Icon">
<path id="Tint" d="M9.03213 1.32392C9.33084 1.18926 9.68109 1.24178 9.92666 1.45869L18.8847 9.37568C19.0651 9.53513 19.1685 9.76478 19.1669 10.0056C19.1653 10.2463 19.0593 10.4745 18.8769 10.6315L9.91885 18.3395C9.67194 18.552 9.32331 18.6014 9.02725 18.4655C8.73142 18.3297 8.54203 18.0342 8.54189 17.7087V13.5544C6.17439 13.6723 3.56109 14.2832 1.83877 16.0056C1.60044 16.2439 1.24196 16.3152 0.930566 16.1862C0.619457 16.0571 0.416906 15.7536 0.416894 15.4167C0.416894 10.5489 3.62598 6.64664 8.54189 6.27314V2.08369C8.54189 1.7561 8.73356 1.45868 9.03213 1.32392ZM10.2079 7.08369C10.2078 7.30819 10.1177 7.52361 9.95693 7.68037C9.79622 7.83705 9.57877 7.92222 9.35439 7.9167C5.85106 7.82911 2.84489 10.1413 2.2333 13.6071C4.09617 12.4834 6.31751 11.9946 8.47451 11.8894C8.75632 11.8756 8.98519 11.8718 9.14541 11.8718C9.63637 11.8718 10.2079 11.9781 10.2079 12.7087V15.8923L17.0653 9.99189L10.2079 3.93232V7.08369Z" fill="black"/>
</g>
</svg>
