<svg preserveAspectRatio="none" width="100%" height="100%" overflow="visible" style="display: block;" viewBox="0 0 24 24" fill="none" xmlns="http://www.w3.org/2000/svg">
<g id="Icon/Messenger">
<path id="messenger" d="M2 11.6991C2 6.12713 6.3675 2 12 2C17.6325 2 22 6.12963 22 11.7016C22 17.2736 17.6325 21.4008 12 21.4008C10.9875 21.4008 10.0175 21.2658 9.105 21.0158C8.9275 20.9683 8.7375 20.9808 8.57 21.0558L6.585 21.9307C6.065 22.1607 5.48 21.7907 5.4625 21.2233L5.4075 19.4435C5.4025 19.2235 5.3025 19.0185 5.14 18.8735C3.195 17.1337 2 14.6139 2 11.6991ZM8.73641 10.0899L5.61181 14.2833C5.31132 14.686 5.89635 15.1381 6.3431 14.8502L9.69906 12.695C9.92509 12.5488 10.2389 12.5488 10.4676 12.6928L12.954 14.2698C13.7012 14.7422 14.7649 14.578 15.2622 13.9098L18.3894 9.7187C18.6873 9.31601 18.1022 8.86158 17.6555 9.14954L14.2995 11.3047C14.0735 11.4509 13.7597 11.4509 13.531 11.307L11.0446 9.72995C10.2974 9.25752 9.23369 9.42175 8.73641 10.0899Z" fill="black" fill-opacity="0.34"/>
</g>
</svg>
