<svg preserveAspectRatio="none" width="100%" height="100%" overflow="visible" style="display: block;" viewBox="0 0 28 28" fill="none" xmlns="http://www.w3.org/2000/svg">
<g id="Icon/Snapchat">
<path id="snapchat" d="M25.614 19.7108C25.3766 20.2706 24.3728 20.682 22.5442 20.9689C22.4502 21.0972 22.3722 21.6451 22.2477 22.072C22.1737 22.3283 21.9915 22.4804 21.695 22.4804L21.6815 22.4803C21.2533 22.4803 20.8063 22.2812 19.911 22.2812C18.7022 22.2812 18.2857 22.5595 17.3473 23.2292C16.3523 23.9402 15.3981 24.5539 13.9737 24.491C12.5315 24.5985 11.3293 23.7124 10.6527 23.229C9.70874 22.5546 9.29336 22.2812 8.08971 22.2812C7.23003 22.2812 6.68895 22.4985 6.31911 22.4985C5.95121 22.4985 5.80811 22.2719 5.75303 22.0823C5.62982 21.6592 5.55226 21.103 5.45573 20.971C4.51331 20.8232 2.38825 20.4485 2.33408 19.4904C2.32048 19.241 2.49482 19.0215 2.73866 18.9807C5.90982 18.4531 7.33807 15.1629 7.39747 15.0232C7.40087 15.0151 7.40452 15.0074 7.40822 14.9995C7.57744 14.6524 7.61528 14.3617 7.52048 14.1358C7.29034 13.588 6.29583 13.3915 5.8775 13.2242C4.79671 12.7928 4.64626 12.2972 4.71023 11.9576C4.82126 11.3665 5.70027 11.0027 6.21427 11.2459C6.62072 11.4384 6.98183 11.5359 7.28735 11.5359C7.51617 11.5359 7.66154 11.4804 7.74118 11.4359C7.6481 9.78099 7.41761 7.41607 8.00039 6.09535C9.53948 2.60839 12.8017 2.33738 13.7643 2.33738C13.8073 2.33738 14.1808 2.33333 14.225 2.33333C16.6015 2.33333 18.8851 3.56656 20.0001 6.09314C20.5824 7.41248 20.3533 9.76771 20.2597 11.4356C20.3318 11.4757 20.4582 11.525 20.6516 11.5341C20.9431 11.521 21.2811 11.4241 21.6573 11.246C21.9347 11.1149 22.3138 11.1326 22.5906 11.2486L22.592 11.2491C23.0238 11.405 23.2955 11.7195 23.3024 12.072C23.3107 12.521 22.914 12.9086 22.123 13.2242C22.0265 13.2627 21.9091 13.3004 21.7843 13.3405C21.3377 13.4835 20.6631 13.6999 20.4801 14.1359C20.3854 14.3618 20.4229 14.6522 20.5922 14.9993C20.5962 15.0071 20.5998 15.0151 20.6031 15.023C20.6624 15.1626 22.0895 18.4521 25.2621 18.9804C25.555 19.0291 25.7708 19.3432 25.614 19.7108Z" fill="black" fill-opacity="0.34"/>
</g>
</svg>
